# xmcd
#
# Track frame offsets:
#	150
#	13210
#	30960
#	46571
#	59370
#	75555
#	93750
#	106218
#	117950
#	139464
#	150912
#
# Disc length: 2145 seconds
#
# Revision: 0
# Processed by: cddbd v1.5.2PL0 Copyright (c) Steve Scherf et al.
# Submitted via: EasyCDDAExtractor 10.2.0.1
#
DISCID=77085f0b
DTITLE=Various Artist - Eddie Crook Vol. 0405
DYEAR=1900
DGENRE=Gospel
TTITLE0=The Duvalls - Dying like I'm Gonna Live
TTITLE1=The Ruckmans - When Jesus Speaks
TTITLE2=Inheritance - WE Will Stand For The Cross
TTITLE3=New Desire - Behind The Scenes
TTITLE4=Manna  - Loving Out Loud
TTITLE5=Still Waters - You Can Rely On God
TTITLE6=Terry Helms - Sky Rise
TTITLE7=Quintin McGinnis - A Victory
TTITLE8=River Of Peace - There's Still A Cross
TTITLE9=Tori Gay - The Church Will Prevail
TTITLE10=Airborne - Pray, Pray, Pray
EXTD=
EXTT0=
EXTT1=
EXTT2=
EXTT3=
EXTT4=
EXTT5=
EXTT6=
EXTT7=
EXTT8=
EXTT9=
EXTT10=
PLAYORDER=
